# xmcd
#
# Track frame offsets: 
#        150
#        26129
#        56411
#        84045
#        109495
#        146984
#        192196
#        230980
#        263456
#        298938
#        329396
#
# Disc length: 4653 seconds
#
# Revision: 3
# Processed by: cddbd v1.5.2PL0 Copyright (c) Steve Scherf et al.
# Submitted via: ExactAudioCopy v1.3
#
DISCID=a5122b0b
DTITLE=Stroud, Jonathan - Bartimäus 4 - Der Ring des Salomo
DYEAR=2010
DGENRE=Lesung
TTITLE0=14 Der Ring des Salomo
TTITLE1=15 Der Ring des Salomo
TTITLE2=16 Der Ring des Salomo
TTITLE3=17 Der Ring des Salomo
TTITLE4=18 Der Ring des Salomo
TTITLE5=19 Der Ring des Salomo
TTITLE6=20 Der Ring des Salomo
TTITLE7=21 Der Ring des Salomo
TTITLE8=22 Der Ring des Salomo
TTITLE9=23 Der Ring des Salomo
TTITLE10=24 Der Ring des Salomo
EXTD=YEAR: 2010
EXTT0=
EXTT1=
EXTT2=
EXTT3=
EXTT4=
EXTT5=
EXTT6=
EXTT7=
EXTT8=
EXTT9=
EXTT10=
PLAYORDER=
